<svg width="179" height="51" viewBox="0 0 179 51" fill="none" xmlns="http://www.w3.org/2000/svg">
<path d="M163.411 48.1108C167.394 47.6917 171.328 46.5113 174.007 44.1208C176.701 41.7835 177.883 38.2598 176.966 35.0431C176.529 33.4494 175.426 32.0034 173.857 30.8701C172.316 29.7251 170.425 28.8633 168.433 28.2318C170.511 28.6449 172.553 29.3001 174.372 30.333C176.164 31.3659 177.718 32.8887 178.399 34.7066C179.789 38.2893 178.714 42.421 175.741 45.3603C174.279 46.8477 172.374 48.0046 170.332 48.8545C168.283 49.7162 166.076 50.2179 163.862 50.5544C161.649 50.8849 159.399 50.9734 157.207 50.997C155 51.0147 152.793 50.9557 150.601 50.7432C146.217 50.3242 141.904 49.5333 137.713 48.4886C133.521 47.432 129.474 46.104 125.497 44.717C120.683 43.0643 116.019 41.2051 111.362 39.517C108.389 41.6419 105.129 43.4952 101.612 45.0121C96.8831 47.0366 91.7176 48.4236 86.3874 49.0316C81.0571 49.669 75.6266 49.4093 70.368 48.7601C65.0807 48.0813 60.0155 47.1251 54.8572 46.1099C50.0571 45.136 45.2713 43.8847 40.7077 42.1199C37.2187 43.324 33.3786 44.05 29.6173 44.0618C25.1682 44.1149 20.7622 43.4598 16.6785 42.2144C12.5805 40.9867 8.8121 39.1865 5.37323 37.0912C9.12733 38.7792 13.0677 40.1604 17.137 41.0103C21.1992 41.8602 25.3903 42.1967 29.474 41.8366C32.0316 41.6596 34.4675 41.1815 36.8031 40.426C33.4287 38.7969 30.2764 36.8256 27.554 34.4705C27.4322 34.4882 27.3104 34.5178 27.1886 34.5296C21.8655 35.3323 16.22 34.6535 11.5131 32.57C6.77028 30.5278 2.88722 27.3877 0 23.7991C3.20961 27.1989 7.27177 30.0674 11.9429 31.8558C16.3848 33.5675 21.407 33.9865 26.1283 33.1956C25.856 32.9536 25.591 32.7057 25.3474 32.4401L24.1007 31.0944C23.2625 30.1973 22.5533 29.2942 21.8082 28.3439C20.3682 26.4493 19.0857 24.4602 18.0756 22.3354C17.0869 20.2105 16.3776 17.944 16.2558 15.5713C16.1197 13.2104 16.657 10.7373 18.0111 8.57114C19.3293 6.39908 21.2995 4.61068 23.5706 3.17641C25.8632 1.77166 28.5068 0.703341 31.3725 0.254764C34.2168 -0.205617 37.2759 -0.0521569 40.0127 0.797778C42.7638 1.6182 45.1782 3.07017 47.0553 4.83497C48.9466 6.59976 50.358 8.68919 51.1389 10.9675C51.5115 12.1066 51.7479 13.3048 51.6834 14.503V15.4001C51.6547 15.6952 51.5831 15.9845 51.533 16.2737C51.3897 16.8462 51.3682 17.4541 51.1174 17.9972C49.5843 22.5242 45.9734 26.1778 41.8038 28.9932C38.7231 30.9705 35.2771 32.5877 31.5875 33.6147C34.2741 35.7041 37.3763 37.4335 40.6647 38.8973C40.7578 38.8501 40.8581 38.8087 40.9584 38.7674C44.5262 37.0912 48.1657 35.0726 52.1563 33.4671C56.1253 31.8204 60.3952 30.6576 64.7225 29.8667C69.0641 29.0699 73.5059 28.6686 77.9406 28.6213C86.8101 28.58 95.6365 29.9435 103.947 32.2454C107.651 33.3019 111.19 34.565 114.658 35.8753C118.082 33.1661 121.106 30.0792 123.663 26.7562C121.478 30.1618 118.734 33.3491 115.532 36.2058C115.697 36.2707 115.869 36.3298 116.033 36.3947L127.582 40.91C131.408 42.3856 135.262 43.749 139.188 44.9058C143.1 46.0922 147.098 47.0248 151.167 47.615C155.201 48.1816 159.406 48.5535 163.411 48.1108ZM48.3305 17.4187C48.5383 16.9465 48.5168 16.4507 48.6314 15.9668C48.6672 15.7248 48.7245 15.4828 48.7389 15.2408L48.7102 14.5207C48.746 13.5527 48.5168 12.6083 48.18 11.6758C47.4923 9.81063 46.2672 8.04583 44.6624 6.60566C43.0719 5.15369 41.073 4.01454 38.8879 3.3948C36.71 2.75145 34.3314 2.66881 32.0603 3.05837C27.5253 3.84928 23.2769 6.49942 21.2135 9.89326C19.0929 13.2871 19.6947 17.4837 21.5001 21.2434C22.3885 23.144 23.5563 24.9855 24.8817 26.7503C25.5551 27.6179 26.2572 28.5269 27.0166 29.3414L28.1414 30.5809C28.514 30.9941 28.9582 31.3541 29.3665 31.7437C29.5815 31.9502 29.8179 32.145 30.04 32.3457C33.7798 31.2833 37.2473 29.5657 40.2492 27.4763C44.0033 24.7494 47.177 21.2966 48.3305 17.4187ZM102.17 36.5364C94.3255 34.2994 86.1438 33.0068 77.9192 32.9241C69.7017 32.7884 61.4914 34.0574 53.9473 36.6898C52.056 37.3509 50.2076 38.13 48.3448 38.9445C47.1627 39.4639 45.9734 40.0069 44.7555 40.5322C48.2589 41.7717 51.927 42.7397 55.6668 43.5542C58.16 44.1031 60.7104 44.5871 63.2466 45.0947C65.7828 45.5964 68.3046 46.0745 70.8408 46.4405C75.8988 47.1841 81.0356 47.5088 86.108 47.072C88.6441 46.8477 91.1588 46.4759 93.6234 45.9033C96.0736 45.3072 98.5094 44.6048 100.823 43.69C104.126 42.4564 107.236 40.8923 110.116 39.0743C107.479 38.1359 104.843 37.2623 102.17 36.5364Z" fill="black"/>
</svg>
