<svg width="179" height="51" viewBox="0 0 179 51" fill="none" xmlns="http://www.w3.org/2000/svg">
<path d="M15.589 48.1108C11.6056 47.6917 7.67241 46.5113 4.99295 44.1208C2.29917 41.7835 1.11705 38.2598 2.03409 35.0431C2.47111 33.4494 3.57441 32.0034 5.1434 30.8701C6.68373 29.7251 8.57511 28.8633 10.5668 28.2318C8.48914 28.6449 6.4473 29.3001 4.62757 30.333C2.83649 31.3659 1.28183 32.8887 0.60122 34.7066C-0.788658 38.2893 0.285984 42.421 3.25918 45.3603C4.7207 46.8477 6.62642 48.0046 8.66825 48.8545C10.7173 49.7162 12.9239 50.2179 15.1376 50.5544C17.3514 50.8849 19.601 50.9734 21.7933 50.997C23.9999 51.0147 26.2065 50.9557 28.3988 50.7432C32.7833 50.3242 37.0963 49.5333 41.2874 48.4886C45.4785 47.432 49.5264 46.104 53.5026 44.717C58.317 43.0643 62.981 41.2051 67.6378 39.517C70.611 41.6419 73.8707 43.4952 77.3884 45.0121C82.1169 47.0366 87.2824 48.4236 92.6126 49.0316C97.9429 49.669 103.373 49.4093 108.632 48.7601C113.919 48.0813 118.984 47.1251 124.143 46.1099C128.943 45.136 133.729 43.8847 138.292 42.1199C141.781 43.324 145.621 44.05 149.383 44.0618C153.832 44.1149 158.238 43.4598 162.321 42.2144C166.419 40.9867 170.188 39.1865 173.627 37.0912C169.873 38.7792 165.932 40.1604 161.863 41.0103C157.801 41.8602 153.61 42.1967 149.526 41.8366C146.968 41.6596 144.532 41.1815 142.197 40.426C145.571 38.7969 148.724 36.8256 151.446 34.4705C151.568 34.4882 151.69 34.5178 151.811 34.5296C157.134 35.3323 162.78 34.6535 167.487 32.57C172.23 30.5278 176.113 27.3877 179 23.7991C175.79 27.1989 171.728 30.0674 167.057 31.8558C162.615 33.5675 157.593 33.9865 152.872 33.1956C153.144 32.9536 153.409 32.7057 153.653 32.4401L154.899 31.0944C155.737 30.1973 156.447 29.2942 157.192 28.3439C158.632 26.4493 159.914 24.4602 160.924 22.3354C161.913 20.2105 162.622 17.944 162.744 15.5713C162.88 13.2104 162.343 10.7373 160.989 8.57114C159.671 6.39908 157.701 4.61068 155.429 3.17641C153.137 1.77166 150.493 0.703341 147.627 0.254764C144.783 -0.205617 141.724 -0.0521569 138.987 0.797778C136.236 1.6182 133.822 3.07017 131.945 4.83497C130.053 6.59976 128.642 8.68919 127.861 10.9675C127.489 12.1066 127.252 13.3048 127.317 14.503V15.4001C127.345 15.6952 127.417 15.9845 127.467 16.2737C127.61 16.8462 127.632 17.4541 127.883 17.9972C129.416 22.5242 133.027 26.1778 137.196 28.9932C140.277 30.9705 143.723 32.5877 147.413 33.6147C144.726 35.7041 141.624 37.4335 138.335 38.8973C138.242 38.8501 138.142 38.8087 138.042 38.7674C134.474 37.0912 130.834 35.0726 126.844 33.4671C122.875 31.8204 118.605 30.6576 114.278 29.8667C109.936 29.0699 105.494 28.6686 101.059 28.6213C92.1899 28.58 83.3635 29.9435 75.0528 32.2454C71.3489 33.3019 67.8097 34.565 64.3422 35.8753C60.9177 33.1661 57.8943 30.0792 55.3366 26.7562C57.5218 30.1618 60.2657 33.3491 63.4682 36.2058C63.3034 36.2707 63.1314 36.3298 62.9666 36.3947L51.4178 40.91C47.592 42.3856 43.7376 43.749 39.8116 44.9058C35.8998 46.0922 31.9022 47.0248 27.8328 47.615C23.7993 48.1816 19.5938 48.5535 15.589 48.1108ZM130.669 17.4187C130.462 16.9465 130.483 16.4507 130.369 15.9668C130.333 15.7248 130.275 15.4828 130.261 15.2408L130.29 14.5207C130.254 13.5527 130.483 12.6083 130.82 11.6758C131.508 9.81063 132.733 8.04583 134.338 6.60566C135.928 5.15369 137.927 4.01454 140.112 3.3948C142.29 2.75145 144.669 2.66881 146.94 3.05837C151.475 3.84928 155.723 6.49942 157.786 9.89326C159.907 13.2871 159.305 17.4837 157.5 21.2434C156.611 23.144 155.444 24.9855 154.118 26.7503C153.445 27.6179 152.743 28.5269 151.983 29.3414L150.859 30.5809C150.486 30.9941 150.042 31.3541 149.633 31.7437C149.419 31.9502 149.182 32.145 148.96 32.3457C145.22 31.2833 141.753 29.5657 138.751 27.4763C134.997 24.7494 131.823 21.2966 130.669 17.4187ZM76.8296 36.5364C84.6745 34.2994 92.8562 33.0068 101.081 32.9241C109.298 32.7884 117.509 34.0574 125.053 36.6898C126.944 37.3509 128.792 38.13 130.655 38.9445C131.837 39.4639 133.027 40.0069 134.245 40.5322C130.741 41.7717 127.073 42.7397 123.333 43.5542C120.84 44.1031 118.29 44.5871 115.753 45.0947C113.217 45.5964 110.695 46.0745 108.159 46.4405C103.101 47.1841 97.9644 47.5088 92.892 47.072C90.3559 46.8477 87.8412 46.4759 85.3766 45.9033C82.9264 45.3072 80.4906 44.6048 78.1765 43.69C74.8738 42.4564 71.7644 40.8923 68.8844 39.0743C71.5209 38.1359 74.1573 37.2623 76.8296 36.5364Z" fill="black"/>
</svg>
